<svg class="main-svg" xmlns="http://www.w3.org/2000/svg" xmlns:xlink="http://www.w3.org/1999/xlink" width="1200" height="600" style="" viewBox="0 0 1200 600"><rect x="0" y="0" width="1200" height="600" style="fill: rgb(255, 255, 255); fill-opacity: 1;"/><defs id="defs-504e84"><g class="clips"><clipPath id="clip504e84xyplot" class="plotclip"><rect width="878" height="470"/></clipPath><clipPath class="axesclip" id="clip504e84x"><rect x="80" y="0" width="878" height="600"/></clipPath><clipPath class="axesclip" id="clip504e84y"><rect x="0" y="50" width="1200" height="470"/></clipPath><clipPath class="axesclip" id="clip504e84xy"><rect x="80" y="50" width="878" height="470"/></clipPath></g><g class="gradients"/></defs><g class="bglayer"/><g class="layer-below"><g class="imagelayer"/><g class="shapelayer"/></g><g class="cartesianlayer"><g class="subplot xy"><g class="layer-subplot"><g class="shapelayer"/><g class="imagelayer"/></g><g class="gridlayer"><g class="x"><path class="xgrid crisp" transform="translate(295.56,0)" d="M0,50v470" style="stroke: rgb(238, 238, 238); stroke-opacity: 1; stroke-width: 1px;"/><path class="xgrid crisp" transform="translate(511.11,0)" d="M0,50v470" style="stroke: rgb(238, 238, 238); stroke-opacity: 1; stroke-width: 1px;"/><path class="xgrid crisp" transform="translate(726.67,0)" d="M0,50v470" style="stroke: rgb(238, 238, 238); stroke-opacity: 1; stroke-width: 1px;"/><path class="xgrid crisp" transform="translate(942.23,0)" d="M0,50v470" style="stroke: rgb(238, 238, 238); stroke-opacity: 1; stroke-width: 1px;"/></g><g class="y"><path class="ygrid crisp" transform="translate(0,426.25)" d="M80,0h878" style="stroke: rgb(238, 238, 238); stroke-opacity: 1; stroke-width: 1px;"/><path class="ygrid crisp" transform="translate(0,357.33)" d="M80,0h878" style="stroke: rgb(238, 238, 238); stroke-opacity: 1; stroke-width: 1px;"/><path class="ygrid crisp" transform="translate(0,288.41999999999996)" d="M80,0h878" style="stroke: rgb(238, 238, 238); stroke-opacity: 1; stroke-width: 1px;"/><path class="ygrid crisp" transform="translate(0,219.5)" d="M80,0h878" style="stroke: rgb(238, 238, 238); stroke-opacity: 1; stroke-width: 1px;"/><path class="ygrid crisp" transform="translate(0,150.59)" d="M80,0h878" style="stroke: rgb(238, 238, 238); stroke-opacity: 1; stroke-width: 1px;"/><path class="ygrid crisp" transform="translate(0,81.67)" d="M80,0h878" style="stroke: rgb(238, 238, 238); stroke-opacity: 1; stroke-width: 1px;"/></g></g><g class="zerolinelayer"><path class="xzl zl crisp" transform="translate(80,0)" d="M0,50v470" style="stroke: rgb(68, 68, 68); stroke-opacity: 1; stroke-width: 1px;"/><path class="yzl zl crisp" transform="translate(0,495.17)" d="M80,0h878" style="stroke: rgb(68, 68, 68); stroke-opacity: 1; stroke-width: 1px;"/></g><path class="xlines-below"/><path class="ylines-below"/><g class="overlines-below"/><g class="xaxislayer-below"/><g class="yaxislayer-below"/><g class="overaxes-below"/><g class="plot" transform="translate(80, 50)" clip-path="url('#clip504e84xyplot')"><g class="scatterlayer mlayer"><g class="trace scatter tracefa2d58" style="stroke-miterlimit: 2; opacity: 1;"><g class="fills"/><g class="errorbars"/><g class="lines"><path class="js-line" style="vector-effect: non-scaling-stroke; fill: none; stroke: rgb(251, 147, 65); stroke-opacity: 1; stroke-width: 1.5px; opacity: 1;" d="M0,376.75L27.59,418.75L54.25,429.26L78.25,434.17L106.14,437.04L162.4,440.17L189.37,440.97L271.61,442.13L298.65,442.3L542.28,442.75"/></g><g class="points"/><g class="text"/></g><g class="trace scatter tracedf9915" style="stroke-miterlimit: 2; opacity: 1;"><g class="fills"/><g class="errorbars"/><g class="lines"><path class="js-line" style="vector-effect: non-scaling-stroke; fill: none; stroke: rgb(88, 153, 218); stroke-opacity: 1; stroke-width: 1.5px; opacity: 1;" d="M0,354.97L25.75,389.12L53.8,403.37L81.79,415.41L109.77,423.67L137.82,428.85L166.19,432.31L222.02,436.4L248.93,437.65L331.45,439.88L355.89,440.36L490.43,441.7L517.49,441.83"/></g><g class="points"/><g class="text"/></g><g class="trace scatter tracec23be1" style="stroke-miterlimit: 2; opacity: 1;"><g class="fills"/><g class="errorbars"/><g class="lines"><path class="js-line" style="vector-effect: non-scaling-stroke; fill: none; stroke: rgb(25, 169, 121); stroke-opacity: 1; stroke-width: 1.5px; opacity: 1;" d="M0,358.47L29.04,406.47L57.66,420.52L86.39,427.85L115.04,432.29L143.57,435.05L172.48,436.98L228.76,439.34L257.48,440.06L369.7,441.53L397.15,441.72L639.33,442.38L667.06,442.4L830.35,442.48"/></g><g class="points"/><g class="text"/></g><g class="trace scatter traceb2c074" style="stroke-miterlimit: 2; opacity: 1;"><g class="fills"/><g class="errorbars"/><g class="lines"><path class="js-line" style="vector-effect: non-scaling-stroke; fill: none; stroke: rgb(237, 74, 123); stroke-opacity: 1; stroke-width: 1.5px; opacity: 1;" d="M0,370.87L29.99,407.76L61.26,424.41L92.67,431.85L125.29,435.7L157.3,437.93L189.27,439.32L253.35,440.92L285.11,441.37L443.96,442.24"/></g><g class="points"/><g class="text"/></g><g class="trace scatter trace0ca395" style="stroke-miterlimit: 2; opacity: 1;"><g class="fills"/><g class="errorbars"/><g class="lines"><path class="js-line" style="vector-effect: non-scaling-stroke; fill: none; stroke: rgb(244, 180, 0); stroke-opacity: 1; stroke-width: 1.5px; opacity: 1;" d="M0,332.14L23.65,377.49L47.83,384.17L70.39,389.53L96.36,394.86L173.81,411.23L199.84,415.8L251.73,422.89L277.62,425.56L329.68,429.47L355.51,431L429.92,434.24L454.69,435.04L578.96,437.79"/></g><g class="points"/><g class="text"/></g><g class="trace scatter tracec2ad29" style="stroke-miterlimit: 2; opacity: 1;"><g class="fills"/><g class="errorbars"/><g class="lines"><path class="js-line" style="vector-effect: non-scaling-stroke; fill: none; stroke: rgb(148, 95, 207); stroke-opacity: 1; stroke-width: 1.5px; opacity: 1;" d="M0,299.59L19.47,366.13L40.24,374.95L129.22,393.83L148.93,397.27L246.61,413.53L266.45,416.24L324.74,422.51L344.41,424.12L402.83,427.92L421.46,428.98L516.17,432.92L535.07,433.5L612.62,435.36"/></g><g class="points"/><g class="text"/></g><g class="trace scatter trace67f1a3" style="stroke-miterlimit: 2; opacity: 1;"><g class="fills"/><g class="errorbars"/><g class="lines"><path class="js-line" style="vector-effect: non-scaling-stroke; fill: none; stroke: rgb(18, 164, 180); stroke-opacity: 1; stroke-width: 1.5px; opacity: 1;" d="M0,275.1L15.24,361.23L31.37,370.69L48.87,376.43L67.78,379.44L105.35,383.62L123.66,385.32L235.09,394.88L253.9,396.58L437.72,413.84L455.34,415.28L547.79,421.36L565.36,422.38L656.87,426.54L675.52,427.22L706.45,428.45"/></g><g class="points"/><g class="text"/></g><g class="trace scatter trace76aaf2" style="stroke-miterlimit: 2; opacity: 1;"><g class="fills"/><g class="errorbars"/><g class="lines"><path class="js-line" style="vector-effect: non-scaling-stroke; fill: none; stroke: rgb(82, 93, 244); stroke-opacity: 1; stroke-width: 1.5px; opacity: 1;" d="M0,228.62L16.16,338.39L33.61,358.02L50.34,370.35L66.61,377L98.16,383.16L113.54,384.84L187.4,391.74L205.94,393.2L425.96,410.39L444.6,411.54L572.07,419.01L590.07,419.91L645.22,422.38"/></g><g class="points"/><g class="text"/></g><g class="trace scatter tracee9a43a" style="stroke-miterlimit: 2; opacity: 1;"><g class="fills"/><g class="errorbars"/><g class="lines"><path class="js-line" style="vector-effect: non-scaling-stroke; fill: none; stroke: rgb(191, 57, 158); stroke-opacity: 1; stroke-width: 1.5px; opacity: 1;" d="M0,23.5L18.88,191.77L37.35,200.52L72.92,215.71L87.46,223.06L217.77,277.73L236.09,284.97"/></g><g class="points"/><g class="text"/></g><g class="trace scatter trace931107" style="stroke-miterlimit: 2; opacity: 1;"><g class="fills"/><g class="errorbars"/><g class="lines"/><g class="points"><path class="point" transform="translate(542.28,442.75)" style="opacity: 1; stroke-width: 0px; fill: rgb(251, 147, 65); fill-opacity: 1;" d="M3,0A3,3 0 1,1 0,-3A3,3 0 0,1 3,0Z"/></g><g class="text"/></g><g class="trace scatter trace92bcc2" style="stroke-miterlimit: 2; opacity: 1;"><g class="fills"/><g class="errorbars"/><g class="lines"/><g class="points"><path class="point" transform="translate(517.49,441.83)" style="opacity: 1; stroke-width: 0px; fill: rgb(88, 153, 218); fill-opacity: 1;" d="M3,0A3,3 0 1,1 0,-3A3,3 0 0,1 3,0Z"/></g><g class="text"/></g><g class="trace scatter trace723113" style="stroke-miterlimit: 2; opacity: 1;"><g class="fills"/><g class="errorbars"/><g class="lines"/><g class="points"><path class="point" transform="translate(830.35,442.48)" style="opacity: 1; stroke-width: 0px; fill: rgb(25, 169, 121); fill-opacity: 1;" d="M3,0A3,3 0 1,1 0,-3A3,3 0 0,1 3,0Z"/></g><g class="text"/></g><g class="trace scatter trace270edb" style="stroke-miterlimit: 2; opacity: 1;"><g class="fills"/><g class="errorbars"/><g class="lines"/><g class="points"><path class="point" transform="translate(443.96,442.24)" style="opacity: 1; stroke-width: 0px; fill: rgb(237, 74, 123); fill-opacity: 1;" d="M3,0A3,3 0 1,1 0,-3A3,3 0 0,1 3,0Z"/></g><g class="text"/></g><g class="trace scatter trace29eb2d" style="stroke-miterlimit: 2; opacity: 1;"><g class="fills"/><g class="errorbars"/><g class="lines"/><g class="points"><path class="point" transform="translate(578.96,437.79)" style="opacity: 1; stroke-width: 0px; fill: rgb(244, 180, 0); fill-opacity: 1;" d="M3,0A3,3 0 1,1 0,-3A3,3 0 0,1 3,0Z"/></g><g class="text"/></g><g class="trace scatter tracecb3c92" style="stroke-miterlimit: 2; opacity: 1;"><g class="fills"/><g class="errorbars"/><g class="lines"/><g class="points"><path class="point" transform="translate(612.62,435.36)" style="opacity: 1; stroke-width: 0px; fill: rgb(148, 95, 207); fill-opacity: 1;" d="M3,0A3,3 0 1,1 0,-3A3,3 0 0,1 3,0Z"/></g><g class="text"/></g><g class="trace scatter trace01ab53" style="stroke-miterlimit: 2; opacity: 1;"><g class="fills"/><g class="errorbars"/><g class="lines"/><g class="points"><path class="point" transform="translate(706.45,428.45)" style="opacity: 1; stroke-width: 0px; fill: rgb(18, 164, 180); fill-opacity: 1;" d="M3,0A3,3 0 1,1 0,-3A3,3 0 0,1 3,0Z"/></g><g class="text"/></g><g class="trace scatter trace2b0712" style="stroke-miterlimit: 2; opacity: 1;"><g class="fills"/><g class="errorbars"/><g class="lines"/><g class="points"><path class="point" transform="translate(645.22,422.38)" style="opacity: 1; stroke-width: 0px; fill: rgb(82, 93, 244); fill-opacity: 1;" d="M3,0A3,3 0 1,1 0,-3A3,3 0 0,1 3,0Z"/></g><g class="text"/></g><g class="trace scatter trace09bf3a" style="stroke-miterlimit: 2; opacity: 1;"><g class="fills"/><g class="errorbars"/><g class="lines"/><g class="points"><path class="point" transform="translate(236.09,284.97)" style="opacity: 1; stroke-width: 0px; fill: rgb(191, 57, 158); fill-opacity: 1;" d="M3,0A3,3 0 1,1 0,-3A3,3 0 0,1 3,0Z"/></g><g class="text"/></g></g></g><g class="overplot"/><path class="xlines-above crisp" style="fill: none;" d="M0,0"/><path class="ylines-above crisp" style="fill: none;" d="M0,0"/><g class="overlines-above"/><g class="xaxislayer-above"><g class="xtick"><text text-anchor="middle" x="0" y="543" style="font-family: TOBESTRIPPEDOpen SansTOBESTRIPPED, verdana, arial, sans-serif; font-size: 12px; fill: rgb(32, 32, 32); fill-opacity: 1; white-space: pre;" transform="translate(80,0)">0</text></g><g class="xtick"><text text-anchor="middle" x="0" y="543" style="font-family: TOBESTRIPPEDOpen SansTOBESTRIPPED, verdana, arial, sans-serif; font-size: 12px; fill: rgb(32, 32, 32); fill-opacity: 1; white-space: pre;" transform="translate(295.56,0)">500</text></g><g class="xtick"><text text-anchor="middle" x="0" y="543" style="font-family: TOBESTRIPPEDOpen SansTOBESTRIPPED, verdana, arial, sans-serif; font-size: 12px; fill: rgb(32, 32, 32); fill-opacity: 1; white-space: pre;" transform="translate(511.11,0)">1000</text></g><g class="xtick"><text text-anchor="middle" x="0" y="543" style="font-family: TOBESTRIPPEDOpen SansTOBESTRIPPED, verdana, arial, sans-serif; font-size: 12px; fill: rgb(32, 32, 32); fill-opacity: 1; white-space: pre;" transform="translate(726.67,0)">1500</text></g><g class="xtick"><text text-anchor="middle" x="0" y="543" style="font-family: TOBESTRIPPEDOpen SansTOBESTRIPPED, verdana, arial, sans-serif; font-size: 12px; fill: rgb(32, 32, 32); fill-opacity: 1; white-space: pre;" transform="translate(942.23,0)">2000</text></g></g><g class="yaxislayer-above"><g class="ytick"><text text-anchor="end" x="69" y="4.199999999999999" style="font-family: TOBESTRIPPEDOpen SansTOBESTRIPPED, verdana, arial, sans-serif; font-size: 12px; fill: rgb(32, 32, 32); fill-opacity: 1; white-space: pre;" transform="translate(0,495.17)">0</text></g><g class="ytick"><text text-anchor="end" x="69" y="4.199999999999999" style="font-family: TOBESTRIPPEDOpen SansTOBESTRIPPED, verdana, arial, sans-serif; font-size: 12px; fill: rgb(32, 32, 32); fill-opacity: 1; white-space: pre;" transform="translate(0,426.25)">1</text></g><g class="ytick"><text text-anchor="end" x="69" y="4.199999999999999" style="font-family: TOBESTRIPPEDOpen SansTOBESTRIPPED, verdana, arial, sans-serif; font-size: 12px; fill: rgb(32, 32, 32); fill-opacity: 1; white-space: pre;" transform="translate(0,357.33)">2</text></g><g class="ytick"><text text-anchor="end" x="69" y="4.199999999999999" style="font-family: TOBESTRIPPEDOpen SansTOBESTRIPPED, verdana, arial, sans-serif; font-size: 12px; fill: rgb(32, 32, 32); fill-opacity: 1; white-space: pre;" transform="translate(0,288.41999999999996)">3</text></g><g class="ytick"><text text-anchor="end" x="69" y="4.199999999999999" style="font-family: TOBESTRIPPEDOpen SansTOBESTRIPPED, verdana, arial, sans-serif; font-size: 12px; fill: rgb(32, 32, 32); fill-opacity: 1; white-space: pre;" transform="translate(0,219.5)">4</text></g><g class="ytick"><text text-anchor="end" x="69" y="4.199999999999999" style="font-family: TOBESTRIPPEDOpen SansTOBESTRIPPED, verdana, arial, sans-serif; font-size: 12px; fill: rgb(32, 32, 32); fill-opacity: 1; white-space: pre;" transform="translate(0,150.59)">5</text></g><g class="ytick"><text text-anchor="end" x="69" y="4.199999999999999" style="font-family: TOBESTRIPPEDOpen SansTOBESTRIPPED, verdana, arial, sans-serif; font-size: 12px; fill: rgb(32, 32, 32); fill-opacity: 1; white-space: pre;" transform="translate(0,81.67)">6</text></g></g><g class="overaxes-above"/></g></g><g class="polarlayer"/><g class="ternarylayer"/><g class="geolayer"/><g class="pielayer"/><g class="sunburstlayer"/><g class="glimages"/><defs id="topdefs-504e84"><g class="clips"/><clipPath id="legend504e84"><rect width="212" height="261" x="0" y="0"/></clipPath></defs><g class="layer-above"><g class="imagelayer"/><g class="shapelayer"/></g><g class="infolayer"><g class="legend" pointer-events="all" transform="translate(975.5600000000001, 50)"><rect class="bg" shape-rendering="crispEdges" style="stroke: rgb(68, 68, 68); stroke-opacity: 1; fill: rgb(255, 255, 255); fill-opacity: 1; stroke-width: 0px;" width="212" height="261" x="0" y="0"/><g class="scrollbox" transform="translate(0, 0)" clip-path="url('#legend504e84')"><g class="groups" transform="translate(0, 0)"><g class="traces" style="opacity: 1;" transform="translate(0, 14.5)"><text class="legendtext user-select-none" text-anchor="start" style="font-family: TOBESTRIPPEDOpen SansTOBESTRIPPED, verdana, arial, sans-serif; font-size: 12px; fill: rgb(68, 68, 68); fill-opacity: 1; white-space: pre;" x="40" y="4.680000000000001">simple(9dabd)</text><g class="layers" style="opacity: 1;"><g class="legendfill"/><g class="legendlines"><path class="js-line" d="M5,0h30" style="fill: none; stroke: rgb(251, 147, 65); stroke-opacity: 1; stroke-width: 1.5px;"/></g><g class="legendsymbols"><g class="legendpoints"/></g></g><rect class="legendtoggle" style="cursor: pointer; fill: rgb(0, 0, 0); fill-opacity: 0;" pointer-events="all" x="0" y="-9.5" width="252" height="19"/></g></g><g class="groups" transform="translate(0, 10)"><g class="traces" style="opacity: 1;" transform="translate(0, 33.5)"><text class="legendtext user-select-none" text-anchor="start" style="font-family: TOBESTRIPPEDOpen SansTOBESTRIPPED, verdana, arial, sans-serif; font-size: 12px; fill: rgb(68, 68, 68); fill-opacity: 1; white-space: pre;" x="40" y="4.680000000000001">no_projection</text><g class="layers" style="opacity: 1;"><g class="legendfill"/><g class="legendlines"><path class="js-line" d="M5,0h30" style="fill: none; stroke: rgb(88, 153, 218); stroke-opacity: 1; stroke-width: 1.5px;"/></g><g class="legendsymbols"><g class="legendpoints"/></g></g><rect class="legendtoggle" style="cursor: pointer; fill: rgb(0, 0, 0); fill-opacity: 0;" pointer-events="all" x="0" y="-9.5" width="252" height="19"/></g></g><g class="groups" transform="translate(0, 20)"><g class="traces" style="opacity: 1;" transform="translate(0, 52.5)"><text class="legendtext user-select-none" text-anchor="start" style="font-family: TOBESTRIPPEDOpen SansTOBESTRIPPED, verdana, arial, sans-serif; font-size: 12px; fill: rgb(68, 68, 68); fill-opacity: 1; white-space: pre;" x="40" y="4.680000000000001">hidden_with_topic(73a65)</text><g class="layers" style="opacity: 1;"><g class="legendfill"/><g class="legendlines"><path class="js-line" d="M5,0h30" style="fill: none; stroke: rgb(25, 169, 121); stroke-opacity: 1; stroke-width: 1.5px;"/></g><g class="legendsymbols"><g class="legendpoints"/></g></g><rect class="legendtoggle" style="cursor: pointer; fill: rgb(0, 0, 0); fill-opacity: 0;" pointer-events="all" x="0" y="-9.5" width="252" height="19"/></g></g><g class="groups" transform="translate(0, 30)"><g class="traces" style="opacity: 1;" transform="translate(0, 71.5)"><text class="legendtext user-select-none" text-anchor="start" style="font-family: TOBESTRIPPEDOpen SansTOBESTRIPPED, verdana, arial, sans-serif; font-size: 12px; fill: rgb(68, 68, 68); fill-opacity: 1; white-space: pre;" x="40" y="4.680000000000001">simple_noproj_32</text><g class="layers" style="opacity: 1;"><g class="legendfill"/><g class="legendlines"><path class="js-line" d="M5,0h30" style="fill: none; stroke: rgb(237, 74, 123); stroke-opacity: 1; stroke-width: 1.5px;"/></g><g class="legendsymbols"><g class="legendpoints"/></g></g><rect class="legendtoggle" style="cursor: pointer; fill: rgb(0, 0, 0); fill-opacity: 0;" pointer-events="all" x="0" y="-9.5" width="252" height="19"/></g></g><g class="groups" transform="translate(0, 40)"><g class="traces" style="opacity: 1;" transform="translate(0, 90.5)"><text class="legendtext user-select-none" text-anchor="start" style="font-family: TOBESTRIPPEDOpen SansTOBESTRIPPED, verdana, arial, sans-serif; font-size: 12px; fill: rgb(68, 68, 68); fill-opacity: 1; white-space: pre;" x="40" y="4.680000000000001">simple_noproj_128</text><g class="layers" style="opacity: 1;"><g class="legendfill"/><g class="legendlines"><path class="js-line" d="M5,0h30" style="fill: none; stroke: rgb(244, 180, 0); stroke-opacity: 1; stroke-width: 1.5px;"/></g><g class="legendsymbols"><g class="legendpoints"/></g></g><rect class="legendtoggle" style="cursor: pointer; fill: rgb(0, 0, 0); fill-opacity: 0;" pointer-events="all" x="0" y="-9.5" width="252" height="19"/></g></g><g class="groups" transform="translate(0, 50)"><g class="traces" style="opacity: 1;" transform="translate(0, 109.5)"><text class="legendtext user-select-none" text-anchor="start" style="font-family: TOBESTRIPPEDOpen SansTOBESTRIPPED, verdana, arial, sans-serif; font-size: 12px; fill: rgb(68, 68, 68); fill-opacity: 1; white-space: pre;" x="40" y="4.680000000000001">simple_noproj_256(d616e)</text><g class="layers" style="opacity: 1;"><g class="legendfill"/><g class="legendlines"><path class="js-line" d="M5,0h30" style="fill: none; stroke: rgb(148, 95, 207); stroke-opacity: 1; stroke-width: 1.5px;"/></g><g class="legendsymbols"><g class="legendpoints"/></g></g><rect class="legendtoggle" style="cursor: pointer; fill: rgb(0, 0, 0); fill-opacity: 0;" pointer-events="all" x="0" y="-9.5" width="252" height="19"/></g></g><g class="groups" transform="translate(0, 60)"><g class="traces" style="opacity: 1;" transform="translate(0, 128.5)"><text class="legendtext user-select-none" text-anchor="start" style="font-family: TOBESTRIPPEDOpen SansTOBESTRIPPED, verdana, arial, sans-serif; font-size: 12px; fill: rgb(68, 68, 68); fill-opacity: 1; white-space: pre;" x="40" y="4.680000000000001">simple_noproj_512</text><g class="layers" style="opacity: 1;"><g class="legendfill"/><g class="legendlines"><path class="js-line" d="M5,0h30" style="fill: none; stroke: rgb(18, 164, 180); stroke-opacity: 1; stroke-width: 1.5px;"/></g><g class="legendsymbols"><g class="legendpoints"/></g></g><rect class="legendtoggle" style="cursor: pointer; fill: rgb(0, 0, 0); fill-opacity: 0;" pointer-events="all" x="0" y="-9.5" width="252" height="19"/></g></g><g class="groups" transform="translate(0, 70)"><g class="traces" style="opacity: 1;" transform="translate(0, 147.5)"><text class="legendtext user-select-none" text-anchor="start" style="font-family: TOBESTRIPPEDOpen SansTOBESTRIPPED, verdana, arial, sans-serif; font-size: 12px; fill: rgb(68, 68, 68); fill-opacity: 1; white-space: pre;" x="40" y="4.680000000000001">512_test</text><g class="layers" style="opacity: 1;"><g class="legendfill"/><g class="legendlines"><path class="js-line" d="M5,0h30" style="fill: none; stroke: rgb(82, 93, 244); stroke-opacity: 1; stroke-width: 1.5px;"/></g><g class="legendsymbols"><g class="legendpoints"/></g></g><rect class="legendtoggle" style="cursor: pointer; fill: rgb(0, 0, 0); fill-opacity: 0;" pointer-events="all" x="0" y="-9.5" width="252" height="19"/></g></g><g class="groups" transform="translate(0, 80)"><g class="traces" style="opacity: 1;" transform="translate(0, 166.5)"><text class="legendtext user-select-none" text-anchor="start" style="font-family: TOBESTRIPPEDOpen SansTOBESTRIPPED, verdana, arial, sans-serif; font-size: 12px; fill: rgb(68, 68, 68); fill-opacity: 1; white-space: pre;" x="40" y="4.680000000000001">512_test2</text><g class="layers" style="opacity: 1;"><g class="legendfill"/><g class="legendlines"><path class="js-line" d="M5,0h30" style="fill: none; stroke: rgb(191, 57, 158); stroke-opacity: 1; stroke-width: 1.5px;"/></g><g class="legendsymbols"><g class="legendpoints"/></g></g><rect class="legendtoggle" style="cursor: pointer; fill: rgb(0, 0, 0); fill-opacity: 0;" pointer-events="all" x="0" y="-9.5" width="252" height="19"/></g></g></g><rect class="scrollbar" rx="20" ry="3" width="0" height="0" style="fill: rgb(128, 139, 164); fill-opacity: 1;" x="0" y="0"/></g><g class="g-gtitle"/><g class="g-xtitle"/><g class="g-ytitle"/></g></svg>