<svg class="main-svg" xmlns="http://www.w3.org/2000/svg" xmlns:xlink="http://www.w3.org/1999/xlink" width="1200" height="600" style="" viewBox="0 0 1200 600"><rect x="0" y="0" width="1200" height="600" style="fill: rgb(255, 255, 255); fill-opacity: 1;"/><defs id="defs-675b9c"><g class="clips"><clipPath id="clip675b9cxyplot" class="plotclip"><rect width="884" height="470"/></clipPath><clipPath class="axesclip" id="clip675b9cx"><rect x="80" y="0" width="884" height="600"/></clipPath><clipPath class="axesclip" id="clip675b9cy"><rect x="0" y="50" width="1200" height="470"/></clipPath><clipPath class="axesclip" id="clip675b9cxy"><rect x="80" y="50" width="884" height="470"/></clipPath></g><g class="gradients"/></defs><g class="bglayer"/><g class="layer-below"><g class="imagelayer"/><g class="shapelayer"/></g><g class="cartesianlayer"><g class="subplot xy"><g class="layer-subplot"><g class="shapelayer"/><g class="imagelayer"/></g><g class="gridlayer"><g class="x"><path class="xgrid crisp" transform="translate(297.03999999999996,0)" d="M0,50v470" style="stroke: rgb(238, 238, 238); stroke-opacity: 1; stroke-width: 1px;"/><path class="xgrid crisp" transform="translate(514.0899999999999,0)" d="M0,50v470" style="stroke: rgb(238, 238, 238); stroke-opacity: 1; stroke-width: 1px;"/><path class="xgrid crisp" transform="translate(731.13,0)" d="M0,50v470" style="stroke: rgb(238, 238, 238); stroke-opacity: 1; stroke-width: 1px;"/><path class="xgrid crisp" transform="translate(948.17,0)" d="M0,50v470" style="stroke: rgb(238, 238, 238); stroke-opacity: 1; stroke-width: 1px;"/></g><g class="y"><path class="ygrid crisp" transform="translate(0,455.34)" d="M80,0h884" style="stroke: rgb(238, 238, 238); stroke-opacity: 1; stroke-width: 1px;"/><path class="ygrid crisp" transform="translate(0,384.01)" d="M80,0h884" style="stroke: rgb(238, 238, 238); stroke-opacity: 1; stroke-width: 1px;"/><path class="ygrid crisp" transform="translate(0,312.69)" d="M80,0h884" style="stroke: rgb(238, 238, 238); stroke-opacity: 1; stroke-width: 1px;"/><path class="ygrid crisp" transform="translate(0,241.36)" d="M80,0h884" style="stroke: rgb(238, 238, 238); stroke-opacity: 1; stroke-width: 1px;"/><path class="ygrid crisp" transform="translate(0,170.04000000000002)" d="M80,0h884" style="stroke: rgb(238, 238, 238); stroke-opacity: 1; stroke-width: 1px;"/><path class="ygrid crisp" transform="translate(0,98.71000000000001)" d="M80,0h884" style="stroke: rgb(238, 238, 238); stroke-opacity: 1; stroke-width: 1px;"/></g></g><g class="zerolinelayer"><path class="xzl zl crisp" transform="translate(80,0)" d="M0,50v470" style="stroke: rgb(68, 68, 68); stroke-opacity: 1; stroke-width: 1px;"/></g><path class="xlines-below"/><path class="ylines-below"/><g class="overlines-below"/><g class="xaxislayer-below"/><g class="yaxislayer-below"/><g class="overaxes-below"/><g class="plot" transform="translate(80, 50)" clip-path="url('#clip675b9cxyplot')"><g class="scatterlayer mlayer"><g class="trace scatter trace5f1697" style="stroke-miterlimit: 2; opacity: 1;"><g class="fills"/><g class="errorbars"/><g class="lines"><path class="js-line" style="vector-effect: non-scaling-stroke; fill: none; stroke: rgb(251, 147, 65); stroke-opacity: 1; stroke-width: 1.5px; opacity: 1;" d="M0,147.04L27.77,252.48L54.6,286.46L78.77,307L106.86,320.14L135.38,331.59L163.5,340.28L190.66,349.72L218.42,357.49L245.4,363.68L273.47,372.13L327.68,384.9L355.06,390.23L382.22,396.03L409.66,400.51L436.85,406.5L464.01,411.33L491.45,414.53L518.68,420.6L546,426.42"/></g><g class="points"/><g class="text"/></g><g class="trace scatter trace669057" style="stroke-miterlimit: 2; opacity: 1;"><g class="fills"/><g class="errorbars"/><g class="lines"><path class="js-line" style="vector-effect: non-scaling-stroke; fill: none; stroke: rgb(88, 153, 218); stroke-opacity: 1; stroke-width: 1.5px; opacity: 1;" d="M0,105.92L25.91,238.15L54.15,277.41L82.33,299.43L110.51,311.92L138.75,323.94L167.31,337.4L195.3,343.87L223.53,353.48L250.62,361.31L277.56,367.4L305.7,373.28L333.71,377.8L358.32,384.59L385.66,389.42L412.59,395.67L439.71,399.49L466.95,406.29L493.79,409.76L521.04,414.51"/></g><g class="points"/><g class="text"/></g><g class="trace scatter trace246b12" style="stroke-miterlimit: 2; opacity: 1;"><g class="fills"/><g class="errorbars"/><g class="lines"><path class="js-line" style="vector-effect: non-scaling-stroke; fill: none; stroke: rgb(25, 169, 121); stroke-opacity: 1; stroke-width: 1.5px; opacity: 1;" d="M0,23.5L29.22,181.3L58.04,232.76L86.96,258.77L115.81,278.5L144.54,292.71L173.64,305.56L202.78,315.55L230.31,323.62L288.24,340.63L317.27,347.51L372.23,361.42L399.86,365.9L455.23,378.4L482.9,382.42L510.03,388.55L535.65,393.5L560.9,400.18L588.31,403.4L615.94,408.82L643.72,413.35L671.63,417.55L699.42,422.82L754.76,429.95L782,434.14L808.86,437.14L836.05,442.75"/></g><g class="points"/><g class="text"/></g><g class="trace scatter traceb73ced" style="stroke-miterlimit: 2; opacity: 1;"><g class="fills"/><g class="errorbars"/><g class="lines"/><g class="points"><path class="point" transform="translate(546,426.42)" style="opacity: 1; stroke-width: 0px; fill: rgb(251, 147, 65); fill-opacity: 1;" d="M3,0A3,3 0 1,1 0,-3A3,3 0 0,1 3,0Z"/></g><g class="text"/></g><g class="trace scatter trace8a37c3" style="stroke-miterlimit: 2; opacity: 1;"><g class="fills"/><g class="errorbars"/><g class="lines"/><g class="points"><path class="point" transform="translate(521.04,414.51)" style="opacity: 1; stroke-width: 0px; fill: rgb(88, 153, 218); fill-opacity: 1;" d="M3,0A3,3 0 1,1 0,-3A3,3 0 0,1 3,0Z"/></g><g class="text"/></g><g class="trace scatter traceeae6d0" style="stroke-miterlimit: 2; opacity: 1;"><g class="fills"/><g class="errorbars"/><g class="lines"/><g class="points"><path class="point" transform="translate(836.05,442.75)" style="opacity: 1; stroke-width: 0px; fill: rgb(25, 169, 121); fill-opacity: 1;" d="M3,0A3,3 0 1,1 0,-3A3,3 0 0,1 3,0Z"/></g><g class="text"/></g></g></g><g class="overplot"/><path class="xlines-above crisp" style="fill: none;" d="M0,0"/><path class="ylines-above crisp" style="fill: none;" d="M0,0"/><g class="overlines-above"/><g class="xaxislayer-above"><g class="xtick"><text text-anchor="middle" x="0" y="543" style="font-family: TOBESTRIPPEDOpen SansTOBESTRIPPED, verdana, arial, sans-serif; font-size: 12px; fill: rgb(32, 32, 32); fill-opacity: 1; white-space: pre;" transform="translate(80,0)">0</text></g><g class="xtick"><text text-anchor="middle" x="0" y="543" style="font-family: TOBESTRIPPEDOpen SansTOBESTRIPPED, verdana, arial, sans-serif; font-size: 12px; fill: rgb(32, 32, 32); fill-opacity: 1; white-space: pre;" transform="translate(297.03999999999996,0)">500</text></g><g class="xtick"><text text-anchor="middle" x="0" y="543" style="font-family: TOBESTRIPPEDOpen SansTOBESTRIPPED, verdana, arial, sans-serif; font-size: 12px; fill: rgb(32, 32, 32); fill-opacity: 1; white-space: pre;" transform="translate(514.0899999999999,0)">1000</text></g><g class="xtick"><text text-anchor="middle" x="0" y="543" style="font-family: TOBESTRIPPEDOpen SansTOBESTRIPPED, verdana, arial, sans-serif; font-size: 12px; fill: rgb(32, 32, 32); fill-opacity: 1; white-space: pre;" transform="translate(731.13,0)">1500</text></g><g class="xtick"><text text-anchor="middle" x="0" y="543" style="font-family: TOBESTRIPPEDOpen SansTOBESTRIPPED, verdana, arial, sans-serif; font-size: 12px; fill: rgb(32, 32, 32); fill-opacity: 1; white-space: pre;" transform="translate(948.17,0)">2000</text></g></g><g class="yaxislayer-above"><g class="ytick"><text text-anchor="end" x="69" y="4.199999999999999" style="font-family: TOBESTRIPPEDOpen SansTOBESTRIPPED, verdana, arial, sans-serif; font-size: 12px; fill: rgb(32, 32, 32); fill-opacity: 1; white-space: pre;" transform="translate(0,455.34)">4</text></g><g class="ytick"><text text-anchor="end" x="69" y="4.199999999999999" style="font-family: TOBESTRIPPEDOpen SansTOBESTRIPPED, verdana, arial, sans-serif; font-size: 12px; fill: rgb(32, 32, 32); fill-opacity: 1; white-space: pre;" transform="translate(0,384.01)">5</text></g><g class="ytick"><text text-anchor="end" x="69" y="4.199999999999999" style="font-family: TOBESTRIPPEDOpen SansTOBESTRIPPED, verdana, arial, sans-serif; font-size: 12px; fill: rgb(32, 32, 32); fill-opacity: 1; white-space: pre;" transform="translate(0,312.69)">6</text></g><g class="ytick"><text text-anchor="end" x="69" y="4.199999999999999" style="font-family: TOBESTRIPPEDOpen SansTOBESTRIPPED, verdana, arial, sans-serif; font-size: 12px; fill: rgb(32, 32, 32); fill-opacity: 1; white-space: pre;" transform="translate(0,241.36)">7</text></g><g class="ytick"><text text-anchor="end" x="69" y="4.199999999999999" style="font-family: TOBESTRIPPEDOpen SansTOBESTRIPPED, verdana, arial, sans-serif; font-size: 12px; fill: rgb(32, 32, 32); fill-opacity: 1; white-space: pre;" transform="translate(0,170.04000000000002)">8</text></g><g class="ytick"><text text-anchor="end" x="69" y="4.199999999999999" style="font-family: TOBESTRIPPEDOpen SansTOBESTRIPPED, verdana, arial, sans-serif; font-size: 12px; fill: rgb(32, 32, 32); fill-opacity: 1; white-space: pre;" transform="translate(0,98.71000000000001)">9</text></g></g><g class="overaxes-above"/></g></g><g class="polarlayer"/><g class="ternarylayer"/><g class="geolayer"/><g class="pielayer"/><g class="sunburstlayer"/><g class="glimages"/><defs id="topdefs-675b9c"><g class="clips"/><clipPath id="legend675b9c"><rect width="206" height="87" x="0" y="0"/></clipPath></defs><g class="layer-above"><g class="imagelayer"/><g class="shapelayer"/></g><g class="infolayer"><g class="legend" pointer-events="all" transform="translate(981.6800000000001, 50)"><rect class="bg" shape-rendering="crispEdges" style="stroke: rgb(68, 68, 68); stroke-opacity: 1; fill: rgb(255, 255, 255); fill-opacity: 1; stroke-width: 0px;" width="206" height="87" x="0" y="0"/><g class="scrollbox" transform="translate(0, 0)" clip-path="url('#legend675b9c')"><g class="groups" transform="translate(0, 0)"><g class="traces" style="opacity: 1;" transform="translate(0, 14.5)"><text class="legendtext user-select-none" text-anchor="start" style="font-family: TOBESTRIPPEDOpen SansTOBESTRIPPED, verdana, arial, sans-serif; font-size: 12px; fill: rgb(68, 68, 68); fill-opacity: 1; white-space: pre;" x="40" y="4.680000000000001">simple(9dabd)</text><g class="layers" style="opacity: 1;"><g class="legendfill"/><g class="legendlines"><path class="js-line" d="M5,0h30" style="fill: none; stroke: rgb(251, 147, 65); stroke-opacity: 1; stroke-width: 1.5px;"/></g><g class="legendsymbols"><g class="legendpoints"/></g></g><rect class="legendtoggle" style="cursor: pointer; fill: rgb(0, 0, 0); fill-opacity: 0;" pointer-events="all" x="0" y="-9.5" width="246" height="19"/></g></g><g class="groups" transform="translate(0, 10)"><g class="traces" style="opacity: 1;" transform="translate(0, 33.5)"><text class="legendtext user-select-none" text-anchor="start" style="font-family: TOBESTRIPPEDOpen SansTOBESTRIPPED, verdana, arial, sans-serif; font-size: 12px; fill: rgb(68, 68, 68); fill-opacity: 1; white-space: pre;" x="40" y="4.680000000000001">no_projection</text><g class="layers" style="opacity: 1;"><g class="legendfill"/><g class="legendlines"><path class="js-line" d="M5,0h30" style="fill: none; stroke: rgb(88, 153, 218); stroke-opacity: 1; stroke-width: 1.5px;"/></g><g class="legendsymbols"><g class="legendpoints"/></g></g><rect class="legendtoggle" style="cursor: pointer; fill: rgb(0, 0, 0); fill-opacity: 0;" pointer-events="all" x="0" y="-9.5" width="246" height="19"/></g></g><g class="groups" transform="translate(0, 20)"><g class="traces" style="opacity: 1;" transform="translate(0, 52.5)"><text class="legendtext user-select-none" text-anchor="start" style="font-family: TOBESTRIPPEDOpen SansTOBESTRIPPED, verdana, arial, sans-serif; font-size: 12px; fill: rgb(68, 68, 68); fill-opacity: 1; white-space: pre;" x="40" y="4.680000000000001">hidden_with_topic(73a65)</text><g class="layers" style="opacity: 1;"><g class="legendfill"/><g class="legendlines"><path class="js-line" d="M5,0h30" style="fill: none; stroke: rgb(25, 169, 121); stroke-opacity: 1; stroke-width: 1.5px;"/></g><g class="legendsymbols"><g class="legendpoints"/></g></g><rect class="legendtoggle" style="cursor: pointer; fill: rgb(0, 0, 0); fill-opacity: 0;" pointer-events="all" x="0" y="-9.5" width="246" height="19"/></g></g></g><rect class="scrollbar" rx="20" ry="3" width="0" height="0" style="fill: rgb(128, 139, 164); fill-opacity: 1;" x="0" y="0"/></g><g class="g-gtitle"/><g class="g-xtitle"/><g class="g-ytitle"/></g></svg>