<svg class="main-svg" xmlns="http://www.w3.org/2000/svg" xmlns:xlink="http://www.w3.org/1999/xlink" width="1200" height="600" style="" viewBox="0 0 1200 600"><rect x="0" y="0" width="1200" height="600" style="fill: rgb(255, 255, 255); fill-opacity: 1;"/><defs id="defs-32f925"><g class="clips"><clipPath id="clip32f925xyplot" class="plotclip"><rect width="878" height="470"/></clipPath><clipPath class="axesclip" id="clip32f925x"><rect x="80" y="0" width="878" height="600"/></clipPath><clipPath class="axesclip" id="clip32f925y"><rect x="0" y="50" width="1200" height="470"/></clipPath><clipPath class="axesclip" id="clip32f925xy"><rect x="80" y="50" width="878" height="470"/></clipPath></g><g class="gradients"/></defs><g class="bglayer"/><g class="layer-below"><g class="imagelayer"/><g class="shapelayer"/></g><g class="cartesianlayer"><g class="subplot xy"><g class="layer-subplot"><g class="shapelayer"/><g class="imagelayer"/></g><g class="gridlayer"><g class="x"><path class="xgrid crisp" transform="translate(295.56,0)" d="M0,50v470" style="stroke: rgb(238, 238, 238); stroke-opacity: 1; stroke-width: 1px;"/><path class="xgrid crisp" transform="translate(511.13,0)" d="M0,50v470" style="stroke: rgb(238, 238, 238); stroke-opacity: 1; stroke-width: 1px;"/><path class="xgrid crisp" transform="translate(726.69,0)" d="M0,50v470" style="stroke: rgb(238, 238, 238); stroke-opacity: 1; stroke-width: 1px;"/><path class="xgrid crisp" transform="translate(942.25,0)" d="M0,50v470" style="stroke: rgb(238, 238, 238); stroke-opacity: 1; stroke-width: 1px;"/></g><g class="y"><path class="ygrid crisp" transform="translate(0,506.57)" d="M80,0h878" style="stroke: rgb(238, 238, 238); stroke-opacity: 1; stroke-width: 1px;"/><path class="ygrid crisp" transform="translate(0,445.76)" d="M80,0h878" style="stroke: rgb(238, 238, 238); stroke-opacity: 1; stroke-width: 1px;"/><path class="ygrid crisp" transform="translate(0,384.95)" d="M80,0h878" style="stroke: rgb(238, 238, 238); stroke-opacity: 1; stroke-width: 1px;"/><path class="ygrid crisp" transform="translate(0,324.14)" d="M80,0h878" style="stroke: rgb(238, 238, 238); stroke-opacity: 1; stroke-width: 1px;"/><path class="ygrid crisp" transform="translate(0,263.34000000000003)" d="M80,0h878" style="stroke: rgb(238, 238, 238); stroke-opacity: 1; stroke-width: 1px;"/><path class="ygrid crisp" transform="translate(0,202.53)" d="M80,0h878" style="stroke: rgb(238, 238, 238); stroke-opacity: 1; stroke-width: 1px;"/><path class="ygrid crisp" transform="translate(0,141.72)" d="M80,0h878" style="stroke: rgb(238, 238, 238); stroke-opacity: 1; stroke-width: 1px;"/><path class="ygrid crisp" transform="translate(0,80.91)" d="M80,0h878" style="stroke: rgb(238, 238, 238); stroke-opacity: 1; stroke-width: 1px;"/></g></g><g class="zerolinelayer"><path class="xzl zl crisp" transform="translate(80,0)" d="M0,50v470" style="stroke: rgb(68, 68, 68); stroke-opacity: 1; stroke-width: 1px;"/></g><path class="xlines-below"/><path class="ylines-below"/><g class="overlines-below"/><g class="xaxislayer-below"/><g class="yaxislayer-below"/><g class="overaxes-below"/><g class="plot" transform="translate(80, 50)" clip-path="url('#clip32f925xyplot')"><g class="scatterlayer mlayer"><g class="trace scatter traced7b42c" style="stroke-miterlimit: 2; opacity: 1;"><g class="fills"/><g class="errorbars"/><g class="lines"><path class="js-line" style="vector-effect: non-scaling-stroke; fill: none; stroke: rgb(251, 147, 65); stroke-opacity: 1; stroke-width: 1.5px; opacity: 1;" d="M0,175.55L27.58,265.44L54.23,294.41L78.23,311.93L106.13,323.12L134.46,332.89L162.39,340.3L189.36,348.34L216.93,354.96L243.72,360.25L271.6,367.44L325.45,378.34L352.64,382.88L379.61,387.82L406.87,391.64L433.88,396.75L460.85,400.86L488.1,403.59L515.15,408.77L542.28,413.73"/></g><g class="points"/><g class="text"/></g><g class="trace scatter trace0618c6" style="stroke-miterlimit: 2; opacity: 1;"><g class="fills"/><g class="errorbars"/><g class="lines"><path class="js-line" style="vector-effect: non-scaling-stroke; fill: none; stroke: rgb(88, 153, 218); stroke-opacity: 1; stroke-width: 1.5px; opacity: 1;" d="M0,140.49L25.74,253.22L53.78,286.69L81.77,305.47L109.75,316.12L137.81,326.37L166.17,337.84L193.97,343.35L222.01,351.55L248.91,358.23L275.67,363.42L303.62,368.43L331.44,372.28L355.88,378.07L383.03,382.19L409.77,387.51L436.72,390.77L463.76,396.57L490.43,399.53L517.48,403.58"/></g><g class="points"/><g class="text"/></g><g class="trace scatter trace851f2a" style="stroke-miterlimit: 2; opacity: 1;"><g class="fills"/><g class="errorbars"/><g class="lines"><path class="js-line" style="vector-effect: non-scaling-stroke; fill: none; stroke: rgb(25, 169, 121); stroke-opacity: 1; stroke-width: 1.5px; opacity: 1;" d="M0,70.23L29.02,204.76L57.64,248.63L86.37,270.81L115.02,287.63L143.55,299.74L172.46,310.7L201.39,319.21L228.74,326.09L286.28,340.59L315.11,346.45L369.69,358.32L397.13,362.14L452.13,372.79L479.6,376.22L532,385.66L557.07,391.36L584.3,394.11L611.74,398.72L694.65,410.66L721.87,413.53L803.34,422.87L830.35,427.65"/></g><g class="points"/><g class="text"/></g><g class="trace scatter tracee9d1be" style="stroke-miterlimit: 2; opacity: 1;"><g class="fills"/><g class="errorbars"/><g class="lines"><path class="js-line" style="vector-effect: non-scaling-stroke; fill: none; stroke: rgb(237, 74, 123); stroke-opacity: 1; stroke-width: 1.5px; opacity: 1;" d="M0,128.05L29.96,231.82L61.24,260.65L92.65,278.49L125.27,292.15L157.28,303L189.25,310.62L220.71,320.5L253.33,327.69L285.09,334.83L316.72,341.1L348.65,346.59L380.73,353.18L443.95,363.9"/></g><g class="points"/><g class="text"/></g><g class="trace scatter trace73f3bb" style="stroke-miterlimit: 2; opacity: 1;"><g class="fills"/><g class="errorbars"/><g class="lines"><path class="js-line" style="vector-effect: non-scaling-stroke; fill: none; stroke: rgb(244, 180, 0); stroke-opacity: 1; stroke-width: 1.5px; opacity: 1;" d="M0,113.55L23.64,248.87L47.82,288.04L70.38,307.96L96.35,326.29L147.94,346.02L173.8,352.57L225.8,366.19L251.73,370.93L303.67,379.82L329.68,386.28L355.51,389.04L380.17,394.32L405.24,396.54L429.92,400.13L454.69,401.81L479.32,406.03L504.05,407.91L528.71,412.19L578.96,418.84"/></g><g class="points"/><g class="text"/></g><g class="trace scatter trace539c0d" style="stroke-miterlimit: 2; opacity: 1;"><g class="fills"/><g class="errorbars"/><g class="lines"><path class="js-line" style="vector-effect: non-scaling-stroke; fill: none; stroke: rgb(148, 95, 207); stroke-opacity: 1; stroke-width: 1.5px; opacity: 1;" d="M0,104.88L19.47,253.14L40.24,290.82L61.39,314.33L78.4,331.58L109.29,351.71L129.22,361.42L148.92,366.52L168.85,374.63L188.62,376.79L208.17,381.93L226.83,386.32L246.61,392.16L266.45,394.93L286.18,399.49L324.74,404.54L344.42,408.13L363.03,409.74L383.18,414.04L421.47,417.92L440.25,422.1L458.95,424L477.5,427.7L497.38,427.09L516.18,429.66L535.08,431.78L554,436.04L573.64,437.06L593.52,439.21L612.63,442.75"/></g><g class="points"/><g class="text"/></g><g class="trace scatter trace8bd12e" style="stroke-miterlimit: 2; opacity: 1;"><g class="fills"/><g class="errorbars"/><g class="lines"><path class="js-line" style="vector-effect: non-scaling-stroke; fill: none; stroke: rgb(18, 164, 180); stroke-opacity: 1; stroke-width: 1.5px; opacity: 1;" d="M0,87.56L15.23,202.21L31.37,260.41L48.87,294.97L67.78,308.37L86.47,324.6L105.35,338.13L123.66,349.36L142.6,357.55L161.03,360.48L179.37,366.35L197.85,374.87L216.74,378.69L235.09,383.55L253.9,386.35L272.41,393.02L290.36,394.16L309.18,396.5L328.02,403.81L346.69,402.64L364.59,407.5L382.7,407.41L400.75,411.41L437.73,416.91L455.35,420.61L474.3,419.37L492.85,419.94L511.23,423.34L529.88,423.73L565.38,425.35L584.11,433.03L601.95,429.17L620.5,432.98L638.89,434.18L656.88,437.84L675.53,437.58L692.4,439.35L706.46,440.69"/></g><g class="points"/><g class="text"/></g><g class="trace scatter tracee39364" style="stroke-miterlimit: 2; opacity: 1;"><g class="fills"/><g class="errorbars"/><g class="lines"><path class="js-line" style="vector-effect: non-scaling-stroke; fill: none; stroke: rgb(82, 93, 244); stroke-opacity: 1; stroke-width: 1.5px; opacity: 1;" d="M0,77.31L16.16,205.11L33.61,257L50.34,292.46L66.61,310L98.16,336.12L113.54,343.36L132.01,351.39L150.26,356.63L168.65,361.6L187.41,368.48L205.95,375.03L224.25,376.99L260.73,384.92L278.47,389.08L297.19,393.53L315.79,393.7L333.73,397.34L351.93,398.29L369.68,402.75L388.23,406.45L407.12,406.64L425.97,408.59L444.62,412.26L463.16,412.28L481.63,416.96L499.56,417.23L517.77,421.55L536.31,422.2L572.08,424.07L590.08,427.71L608.11,427L626.77,430.24L645.24,429.62"/></g><g class="points"/><g class="text"/></g><g class="trace scatter tracef8fc3a" style="stroke-miterlimit: 2; opacity: 1;"><g class="fills"/><g class="errorbars"/><g class="lines"><path class="js-line" style="vector-effect: non-scaling-stroke; fill: none; stroke: rgb(191, 57, 158); stroke-opacity: 1; stroke-width: 1.5px; opacity: 1;" d="M0,23.5L18.88,187.75L37.35,217.96L72.92,264.53L87.47,283.11L105.52,296.16L124.18,313.24L161.47,328.76L180.12,335.33L199.01,339.41L217.77,344.46L236.1,348.93"/></g><g class="points"/><g class="text"/></g><g class="trace scatter trace6af999" style="stroke-miterlimit: 2; opacity: 1;"><g class="fills"/><g class="errorbars"/><g class="lines"/><g class="points"><path class="point" transform="translate(542.28,413.73)" style="opacity: 1; stroke-width: 0px; fill: rgb(251, 147, 65); fill-opacity: 1;" d="M3,0A3,3 0 1,1 0,-3A3,3 0 0,1 3,0Z"/></g><g class="text"/></g><g class="trace scatter tracefbdf96" style="stroke-miterlimit: 2; opacity: 1;"><g class="fills"/><g class="errorbars"/><g class="lines"/><g class="points"><path class="point" transform="translate(517.48,403.58)" style="opacity: 1; stroke-width: 0px; fill: rgb(88, 153, 218); fill-opacity: 1;" d="M3,0A3,3 0 1,1 0,-3A3,3 0 0,1 3,0Z"/></g><g class="text"/></g><g class="trace scatter trace7b4da7" style="stroke-miterlimit: 2; opacity: 1;"><g class="fills"/><g class="errorbars"/><g class="lines"/><g class="points"><path class="point" transform="translate(830.35,427.65)" style="opacity: 1; stroke-width: 0px; fill: rgb(25, 169, 121); fill-opacity: 1;" d="M3,0A3,3 0 1,1 0,-3A3,3 0 0,1 3,0Z"/></g><g class="text"/></g><g class="trace scatter tracedc21e0" style="stroke-miterlimit: 2; opacity: 1;"><g class="fills"/><g class="errorbars"/><g class="lines"/><g class="points"><path class="point" transform="translate(443.95,363.9)" style="opacity: 1; stroke-width: 0px; fill: rgb(237, 74, 123); fill-opacity: 1;" d="M3,0A3,3 0 1,1 0,-3A3,3 0 0,1 3,0Z"/></g><g class="text"/></g><g class="trace scatter traceba47c8" style="stroke-miterlimit: 2; opacity: 1;"><g class="fills"/><g class="errorbars"/><g class="lines"/><g class="points"><path class="point" transform="translate(578.96,418.84)" style="opacity: 1; stroke-width: 0px; fill: rgb(244, 180, 0); fill-opacity: 1;" d="M3,0A3,3 0 1,1 0,-3A3,3 0 0,1 3,0Z"/></g><g class="text"/></g><g class="trace scatter trace0ff31e" style="stroke-miterlimit: 2; opacity: 1;"><g class="fills"/><g class="errorbars"/><g class="lines"/><g class="points"><path class="point" transform="translate(612.63,442.75)" style="opacity: 1; stroke-width: 0px; fill: rgb(148, 95, 207); fill-opacity: 1;" d="M3,0A3,3 0 1,1 0,-3A3,3 0 0,1 3,0Z"/></g><g class="text"/></g><g class="trace scatter tracee977ab" style="stroke-miterlimit: 2; opacity: 1;"><g class="fills"/><g class="errorbars"/><g class="lines"/><g class="points"><path class="point" transform="translate(706.46,440.69)" style="opacity: 1; stroke-width: 0px; fill: rgb(18, 164, 180); fill-opacity: 1;" d="M3,0A3,3 0 1,1 0,-3A3,3 0 0,1 3,0Z"/></g><g class="text"/></g><g class="trace scatter trace7fb3e1" style="stroke-miterlimit: 2; opacity: 1;"><g class="fills"/><g class="errorbars"/><g class="lines"/><g class="points"><path class="point" transform="translate(645.24,429.62)" style="opacity: 1; stroke-width: 0px; fill: rgb(82, 93, 244); fill-opacity: 1;" d="M3,0A3,3 0 1,1 0,-3A3,3 0 0,1 3,0Z"/></g><g class="text"/></g><g class="trace scatter tracea1f507" style="stroke-miterlimit: 2; opacity: 1;"><g class="fills"/><g class="errorbars"/><g class="lines"/><g class="points"><path class="point" transform="translate(236.1,348.93)" style="opacity: 1; stroke-width: 0px; fill: rgb(191, 57, 158); fill-opacity: 1;" d="M3,0A3,3 0 1,1 0,-3A3,3 0 0,1 3,0Z"/></g><g class="text"/></g></g></g><g class="overplot"/><path class="xlines-above crisp" style="fill: none;" d="M0,0"/><path class="ylines-above crisp" style="fill: none;" d="M0,0"/><g class="overlines-above"/><g class="xaxislayer-above"><g class="xtick"><text text-anchor="middle" x="0" y="543" style="font-family: TOBESTRIPPEDOpen SansTOBESTRIPPED, verdana, arial, sans-serif; font-size: 12px; fill: rgb(32, 32, 32); fill-opacity: 1; white-space: pre;" transform="translate(80,0)">0</text></g><g class="xtick"><text text-anchor="middle" x="0" y="543" style="font-family: TOBESTRIPPEDOpen SansTOBESTRIPPED, verdana, arial, sans-serif; font-size: 12px; fill: rgb(32, 32, 32); fill-opacity: 1; white-space: pre;" transform="translate(295.56,0)">500</text></g><g class="xtick"><text text-anchor="middle" x="0" y="543" style="font-family: TOBESTRIPPEDOpen SansTOBESTRIPPED, verdana, arial, sans-serif; font-size: 12px; fill: rgb(32, 32, 32); fill-opacity: 1; white-space: pre;" transform="translate(511.13,0)">1000</text></g><g class="xtick"><text text-anchor="middle" x="0" y="543" style="font-family: TOBESTRIPPEDOpen SansTOBESTRIPPED, verdana, arial, sans-serif; font-size: 12px; fill: rgb(32, 32, 32); fill-opacity: 1; white-space: pre;" transform="translate(726.69,0)">1500</text></g><g class="xtick"><text text-anchor="middle" x="0" y="543" style="font-family: TOBESTRIPPEDOpen SansTOBESTRIPPED, verdana, arial, sans-serif; font-size: 12px; fill: rgb(32, 32, 32); fill-opacity: 1; white-space: pre;" transform="translate(942.25,0)">2000</text></g></g><g class="yaxislayer-above"><g class="ytick"><text text-anchor="end" x="69" y="4.199999999999999" style="font-family: TOBESTRIPPEDOpen SansTOBESTRIPPED, verdana, arial, sans-serif; font-size: 12px; fill: rgb(32, 32, 32); fill-opacity: 1; white-space: pre;" transform="translate(0,506.57)">3</text></g><g class="ytick"><text text-anchor="end" x="69" y="4.199999999999999" style="font-family: TOBESTRIPPEDOpen SansTOBESTRIPPED, verdana, arial, sans-serif; font-size: 12px; fill: rgb(32, 32, 32); fill-opacity: 1; white-space: pre;" transform="translate(0,445.76)">4</text></g><g class="ytick"><text text-anchor="end" x="69" y="4.199999999999999" style="font-family: TOBESTRIPPEDOpen SansTOBESTRIPPED, verdana, arial, sans-serif; font-size: 12px; fill: rgb(32, 32, 32); fill-opacity: 1; white-space: pre;" transform="translate(0,384.95)">5</text></g><g class="ytick"><text text-anchor="end" x="69" y="4.199999999999999" style="font-family: TOBESTRIPPEDOpen SansTOBESTRIPPED, verdana, arial, sans-serif; font-size: 12px; fill: rgb(32, 32, 32); fill-opacity: 1; white-space: pre;" transform="translate(0,324.14)">6</text></g><g class="ytick"><text text-anchor="end" x="69" y="4.199999999999999" style="font-family: TOBESTRIPPEDOpen SansTOBESTRIPPED, verdana, arial, sans-serif; font-size: 12px; fill: rgb(32, 32, 32); fill-opacity: 1; white-space: pre;" transform="translate(0,263.34000000000003)">7</text></g><g class="ytick"><text text-anchor="end" x="69" y="4.199999999999999" style="font-family: TOBESTRIPPEDOpen SansTOBESTRIPPED, verdana, arial, sans-serif; font-size: 12px; fill: rgb(32, 32, 32); fill-opacity: 1; white-space: pre;" transform="translate(0,202.53)">8</text></g><g class="ytick"><text text-anchor="end" x="69" y="4.199999999999999" style="font-family: TOBESTRIPPEDOpen SansTOBESTRIPPED, verdana, arial, sans-serif; font-size: 12px; fill: rgb(32, 32, 32); fill-opacity: 1; white-space: pre;" transform="translate(0,141.72)">9</text></g><g class="ytick"><text text-anchor="end" x="69" y="4.199999999999999" style="font-family: TOBESTRIPPEDOpen SansTOBESTRIPPED, verdana, arial, sans-serif; font-size: 12px; fill: rgb(32, 32, 32); fill-opacity: 1; white-space: pre;" transform="translate(0,80.91)">10</text></g></g><g class="overaxes-above"/></g></g><g class="polarlayer"/><g class="ternarylayer"/><g class="geolayer"/><g class="pielayer"/><g class="sunburstlayer"/><g class="glimages"/><defs id="topdefs-32f925"><g class="clips"/><clipPath id="legend32f925"><rect width="212" height="261" x="0" y="0"/></clipPath></defs><g class="layer-above"><g class="imagelayer"/><g class="shapelayer"/></g><g class="infolayer"><g class="legend" pointer-events="all" transform="translate(975.5600000000001, 50)"><rect class="bg" shape-rendering="crispEdges" style="stroke: rgb(68, 68, 68); stroke-opacity: 1; fill: rgb(255, 255, 255); fill-opacity: 1; stroke-width: 0px;" width="212" height="261" x="0" y="0"/><g class="scrollbox" transform="translate(0, 0)" clip-path="url('#legend32f925')"><g class="groups" transform="translate(0, 0)"><g class="traces" style="opacity: 1;" transform="translate(0, 14.5)"><text class="legendtext user-select-none" text-anchor="start" style="font-family: TOBESTRIPPEDOpen SansTOBESTRIPPED, verdana, arial, sans-serif; font-size: 12px; fill: rgb(68, 68, 68); fill-opacity: 1; white-space: pre;" x="40" y="4.680000000000001">simple(9dabd)</text><g class="layers" style="opacity: 1;"><g class="legendfill"/><g class="legendlines"><path class="js-line" d="M5,0h30" style="fill: none; stroke: rgb(251, 147, 65); stroke-opacity: 1; stroke-width: 1.5px;"/></g><g class="legendsymbols"><g class="legendpoints"/></g></g><rect class="legendtoggle" style="cursor: pointer; fill: rgb(0, 0, 0); fill-opacity: 0;" pointer-events="all" x="0" y="-9.5" width="252" height="19"/></g></g><g class="groups" transform="translate(0, 10)"><g class="traces" style="opacity: 1;" transform="translate(0, 33.5)"><text class="legendtext user-select-none" text-anchor="start" style="font-family: TOBESTRIPPEDOpen SansTOBESTRIPPED, verdana, arial, sans-serif; font-size: 12px; fill: rgb(68, 68, 68); fill-opacity: 1; white-space: pre;" x="40" y="4.680000000000001">no_projection</text><g class="layers" style="opacity: 1;"><g class="legendfill"/><g class="legendlines"><path class="js-line" d="M5,0h30" style="fill: none; stroke: rgb(88, 153, 218); stroke-opacity: 1; stroke-width: 1.5px;"/></g><g class="legendsymbols"><g class="legendpoints"/></g></g><rect class="legendtoggle" style="cursor: pointer; fill: rgb(0, 0, 0); fill-opacity: 0;" pointer-events="all" x="0" y="-9.5" width="252" height="19"/></g></g><g class="groups" transform="translate(0, 20)"><g class="traces" style="opacity: 1;" transform="translate(0, 52.5)"><text class="legendtext user-select-none" text-anchor="start" style="font-family: TOBESTRIPPEDOpen SansTOBESTRIPPED, verdana, arial, sans-serif; font-size: 12px; fill: rgb(68, 68, 68); fill-opacity: 1; white-space: pre;" x="40" y="4.680000000000001">hidden_with_topic(73a65)</text><g class="layers" style="opacity: 1;"><g class="legendfill"/><g class="legendlines"><path class="js-line" d="M5,0h30" style="fill: none; stroke: rgb(25, 169, 121); stroke-opacity: 1; stroke-width: 1.5px;"/></g><g class="legendsymbols"><g class="legendpoints"/></g></g><rect class="legendtoggle" style="cursor: pointer; fill: rgb(0, 0, 0); fill-opacity: 0;" pointer-events="all" x="0" y="-9.5" width="252" height="19"/></g></g><g class="groups" transform="translate(0, 30)"><g class="traces" style="opacity: 1;" transform="translate(0, 71.5)"><text class="legendtext user-select-none" text-anchor="start" style="font-family: TOBESTRIPPEDOpen SansTOBESTRIPPED, verdana, arial, sans-serif; font-size: 12px; fill: rgb(68, 68, 68); fill-opacity: 1; white-space: pre;" x="40" y="4.680000000000001">simple_noproj_32</text><g class="layers" style="opacity: 1;"><g class="legendfill"/><g class="legendlines"><path class="js-line" d="M5,0h30" style="fill: none; stroke: rgb(237, 74, 123); stroke-opacity: 1; stroke-width: 1.5px;"/></g><g class="legendsymbols"><g class="legendpoints"/></g></g><rect class="legendtoggle" style="cursor: pointer; fill: rgb(0, 0, 0); fill-opacity: 0;" pointer-events="all" x="0" y="-9.5" width="252" height="19"/></g></g><g class="groups" transform="translate(0, 40)"><g class="traces" style="opacity: 1;" transform="translate(0, 90.5)"><text class="legendtext user-select-none" text-anchor="start" style="font-family: TOBESTRIPPEDOpen SansTOBESTRIPPED, verdana, arial, sans-serif; font-size: 12px; fill: rgb(68, 68, 68); fill-opacity: 1; white-space: pre;" x="40" y="4.680000000000001">simple_noproj_128</text><g class="layers" style="opacity: 1;"><g class="legendfill"/><g class="legendlines"><path class="js-line" d="M5,0h30" style="fill: none; stroke: rgb(244, 180, 0); stroke-opacity: 1; stroke-width: 1.5px;"/></g><g class="legendsymbols"><g class="legendpoints"/></g></g><rect class="legendtoggle" style="cursor: pointer; fill: rgb(0, 0, 0); fill-opacity: 0;" pointer-events="all" x="0" y="-9.5" width="252" height="19"/></g></g><g class="groups" transform="translate(0, 50)"><g class="traces" style="opacity: 1;" transform="translate(0, 109.5)"><text class="legendtext user-select-none" text-anchor="start" style="font-family: TOBESTRIPPEDOpen SansTOBESTRIPPED, verdana, arial, sans-serif; font-size: 12px; fill: rgb(68, 68, 68); fill-opacity: 1; white-space: pre;" x="40" y="4.680000000000001">simple_noproj_256(d616e)</text><g class="layers" style="opacity: 1;"><g class="legendfill"/><g class="legendlines"><path class="js-line" d="M5,0h30" style="fill: none; stroke: rgb(148, 95, 207); stroke-opacity: 1; stroke-width: 1.5px;"/></g><g class="legendsymbols"><g class="legendpoints"/></g></g><rect class="legendtoggle" style="cursor: pointer; fill: rgb(0, 0, 0); fill-opacity: 0;" pointer-events="all" x="0" y="-9.5" width="252" height="19"/></g></g><g class="groups" transform="translate(0, 60)"><g class="traces" style="opacity: 1;" transform="translate(0, 128.5)"><text class="legendtext user-select-none" text-anchor="start" style="font-family: TOBESTRIPPEDOpen SansTOBESTRIPPED, verdana, arial, sans-serif; font-size: 12px; fill: rgb(68, 68, 68); fill-opacity: 1; white-space: pre;" x="40" y="4.680000000000001">simple_noproj_512</text><g class="layers" style="opacity: 1;"><g class="legendfill"/><g class="legendlines"><path class="js-line" d="M5,0h30" style="fill: none; stroke: rgb(18, 164, 180); stroke-opacity: 1; stroke-width: 1.5px;"/></g><g class="legendsymbols"><g class="legendpoints"/></g></g><rect class="legendtoggle" style="cursor: pointer; fill: rgb(0, 0, 0); fill-opacity: 0;" pointer-events="all" x="0" y="-9.5" width="252" height="19"/></g></g><g class="groups" transform="translate(0, 70)"><g class="traces" style="opacity: 1;" transform="translate(0, 147.5)"><text class="legendtext user-select-none" text-anchor="start" style="font-family: TOBESTRIPPEDOpen SansTOBESTRIPPED, verdana, arial, sans-serif; font-size: 12px; fill: rgb(68, 68, 68); fill-opacity: 1; white-space: pre;" x="40" y="4.680000000000001">512_test</text><g class="layers" style="opacity: 1;"><g class="legendfill"/><g class="legendlines"><path class="js-line" d="M5,0h30" style="fill: none; stroke: rgb(82, 93, 244); stroke-opacity: 1; stroke-width: 1.5px;"/></g><g class="legendsymbols"><g class="legendpoints"/></g></g><rect class="legendtoggle" style="cursor: pointer; fill: rgb(0, 0, 0); fill-opacity: 0;" pointer-events="all" x="0" y="-9.5" width="252" height="19"/></g></g><g class="groups" transform="translate(0, 80)"><g class="traces" style="opacity: 1;" transform="translate(0, 166.5)"><text class="legendtext user-select-none" text-anchor="start" style="font-family: TOBESTRIPPEDOpen SansTOBESTRIPPED, verdana, arial, sans-serif; font-size: 12px; fill: rgb(68, 68, 68); fill-opacity: 1; white-space: pre;" x="40" y="4.680000000000001">512_test2</text><g class="layers" style="opacity: 1;"><g class="legendfill"/><g class="legendlines"><path class="js-line" d="M5,0h30" style="fill: none; stroke: rgb(191, 57, 158); stroke-opacity: 1; stroke-width: 1.5px;"/></g><g class="legendsymbols"><g class="legendpoints"/></g></g><rect class="legendtoggle" style="cursor: pointer; fill: rgb(0, 0, 0); fill-opacity: 0;" pointer-events="all" x="0" y="-9.5" width="252" height="19"/></g></g></g><rect class="scrollbar" rx="20" ry="3" width="0" height="0" style="fill: rgb(128, 139, 164); fill-opacity: 1;" x="0" y="0"/></g><g class="g-gtitle"/><g class="g-xtitle"/><g class="g-ytitle"/></g></svg>